<?xml version="1.0" encoding="UTF-8"?>
<svg width="128" height="128" viewBox="0 0 128 128"
     xmlns="http://www.w3.org/2000/svg">
  <title>Spruce Icon</title>

  <rect width="128" height="128" fill="none"/>

  <g transform="translate(2,0) scale(1.02)">

    <rect x="20" y="96" width="88" height="16" rx="8" fill="#2C3337"/>
    <rect x="61" y="26" width="12" height="74" rx="6" fill="#D0D5DB"/>
    <rect x="59" y="92" width="16" height="12" rx="6" fill="#D0D5DB"/>

    <path d="M74 26v-12c0-8-6-14-14-14h-7a6 6 0 1 0 0 12h7c1.6 0 3 1.4 3 3v11h11z"
          fill="#D0D5DB"/>

    <rect x="58" y="52" width="8" height="18" rx="4" fill="#D0D5DB"/>

    <ellipse cx="50" cy="64" rx="23.5" ry="21.6" fill="#34C46B"/>
    <ellipse cx="50" cy="64" rx="17.5" ry="13" fill="#6FDD97"/>

    <rect x="38" y="60" width="24" height="2" rx="1" fill="#2BA35A"/>
    <rect x="38" y="64" width="24" height="2" rx="1" fill="#2BA35A"/>
    <rect x="38" y="68" width="24" height="2" rx="1" fill="#2BA35A"/>

  </g>
</svg>

